<svg width="70" height="70" viewBox="0 0 70 70" fill="none" xmlns="http://www.w3.org/2000/svg">
<g clip-path="url(#clip0_529:545)">
<path d="M0.612363 35.1159L6.03107 38.2444C6.57453 38.5582 7.23502 38.4436 7.64477 38.0296L11.6925 40.3665C10.8581 43.0172 12.6911 45.737 15.4474 45.9771C14.84 48.2582 16.1768 50.643 18.5075 51.2675C19.1343 51.4356 19.7929 51.4648 20.4427 51.3396C20.194 53.8836 22.1996 56.0787 24.7536 56.0787C25.5396 56.0787 26.2909 55.8616 26.9094 55.4998C27.0319 57.7729 28.9166 59.5841 31.2346 59.5841C31.9679 59.5841 32.7105 59.3978 33.3899 59.0055C34.3239 58.4663 34.4168 58.4211 34.6542 58.2496L37.0696 59.6442C38.0933 60.2352 39.3341 60.3886 40.4737 60.0717C42.4437 59.5238 43.6821 57.7443 43.6133 55.8003C45.6725 56.9226 48.3641 56.2492 49.5344 54.1302C49.9343 53.4061 50.1018 52.6109 50.0616 51.8335C50.9395 52.1618 51.8865 52.1964 52.7924 51.9246C55.1232 51.2246 56.4819 48.6658 55.5702 46.2396C56.7573 46.0087 57.8427 45.285 58.4933 44.1579C58.5036 44.1401 58.5133 44.1221 58.5225 44.1037C59.1434 42.8619 59.1194 41.4235 58.5771 40.2107L62.355 38.0296C62.7659 38.4448 63.4267 38.5573 63.9685 38.2445L69.3871 35.1161C69.765 34.8981 69.9997 34.4916 69.9997 34.0553V10.9928C69.9997 10.0522 68.9783 9.46154 68.1626 9.93213L52.7574 18.8264C52.2092 19.1429 51.9846 19.7753 52.1366 20.3312L48.0525 22.6892C47.7222 22.8801 47.5044 23.1918 47.4225 23.5367C46.0482 24.3162 44.349 24.3107 42.9793 23.5199L38.4565 20.9087C36.419 19.7324 33.8875 19.7323 31.8499 20.9087L25.6512 24.4875C24.5744 24.4164 23.5616 24.1044 22.5768 23.537C22.495 23.1921 22.2771 22.8801 21.9465 22.6891L17.8626 20.3312C18.0143 19.7764 17.7909 19.1433 17.2419 18.8264L12.5684 16.1282C12.078 15.8449 11.4509 16.0131 11.1677 16.5035C10.8846 16.9939 11.0526 17.6211 11.543 17.9042L15.5955 20.2439L6.43576 36.1099L2.05078 33.5783V12.4236L7.31254 15.4614C7.80281 15.7446 8.43008 15.5766 8.71322 15.0861C8.99637 14.5957 8.82834 13.9686 8.33793 13.6855L1.83695 9.93199C1.02238 9.46195 0 10.0513 0 10.9928V34.0553C0 34.4916 0.234746 34.8981 0.612363 35.1159ZM13.8471 42.8066C13.2202 41.7205 13.5937 40.3268 14.6796 39.6998L17.6133 38.006C18.6994 37.3788 20.0931 37.7525 20.7201 38.8384C21.3471 39.9244 20.9736 41.3182 19.8877 41.9452C17.1213 43.5424 19.7557 42.0214 16.9539 43.639C15.868 44.2659 14.4743 43.8927 13.8471 42.8066ZM19.0384 49.2868C17.8243 48.9615 17.1047 47.7156 17.4301 46.5012C17.5874 45.9144 17.9638 45.424 18.4898 45.1203C19.6852 44.4301 19.2265 44.6949 20.2352 44.1126C21.321 43.4877 22.7128 43.8616 23.3393 44.9466C23.9663 46.0326 23.5927 47.4264 22.5068 48.0534L20.764 49.0595C20.2381 49.3632 19.625 49.444 19.0384 49.2868ZM22.7769 52.8918C22.1499 51.8058 22.5235 50.4119 23.6094 49.785L25.1821 48.877C25.709 48.5728 26.3219 48.4928 26.9079 48.6498C28.1221 48.9752 28.8415 50.221 28.5161 51.4353C28.3634 52.0051 27.9966 52.5044 27.4564 52.8163L25.8837 53.7244C24.7976 54.3514 23.4041 53.9777 22.7769 52.8918ZM33.2568 56.7147L32.3646 57.2298C31.2785 57.8566 29.8848 57.4833 29.2578 56.3974C28.6288 55.3078 29.0078 53.9156 30.0903 53.2906L30.9825 52.7754C32.0755 52.1443 33.4663 52.5289 34.0893 53.6079C34.7163 54.6938 34.3428 56.0876 33.2568 56.7147ZM53.1244 22.1292L57.6518 29.9707C57.9351 30.4611 58.5622 30.6293 59.0525 30.346C59.5429 30.0629 59.711 29.4357 59.4278 28.9453L54.4039 20.2439L67.9492 12.4236V33.5783L63.5642 36.1099L61.8676 33.1712C61.5844 32.6806 60.9573 32.5126 60.4669 32.7959C59.9765 33.079 59.8084 33.7062 60.0916 34.1966L61.2918 36.2755L57.8669 38.2529L49.6995 24.1064L53.1244 22.1292ZM23.6373 26.2058C22.0444 28.6925 23.3461 31.9693 26.1555 32.722C27.2714 33.0211 28.4371 32.8677 29.4373 32.29L35.8278 28.6015C35.9111 28.5534 36.0145 28.5535 36.0976 28.6015L39.2982 30.4494C39.7883 30.7325 40.4157 30.5644 40.6988 30.0741C40.982 29.5837 40.814 28.9565 40.3236 28.6734L37.1231 26.8256C36.4075 26.4123 35.5183 26.4125 34.8027 26.8255L28.4122 30.514C27.326 31.1412 25.9324 30.7675 25.3054 29.6816C24.6784 28.5956 25.0519 27.2019 26.1379 26.5748C40.308 18.3938 26.384 26.4326 32.8757 22.6847C34.2807 21.8736 36.0263 21.8734 37.4315 22.6847L41.9543 25.2959C43.8509 26.391 46.1813 26.4538 48.1269 25.4843L54.7903 37.0258L44.5953 31.1398C44.1049 30.8565 43.4777 31.0247 43.1946 31.5151C42.9115 32.0055 43.0795 32.6326 43.5699 32.9158L55.7085 39.924C56.7982 40.553 57.2485 42.0284 56.702 43.1593C56.0679 44.2249 54.6882 44.5872 53.6108 43.9653C53.4536 43.8605 54.8372 44.6733 46.2916 39.7394C45.8012 39.4561 45.1741 39.6242 44.8909 40.1147C44.6078 40.6051 44.7758 41.2322 45.2662 41.5154C45.3388 41.5574 52.5875 45.7423 52.6859 45.7992C53.6886 46.3781 54.0984 47.7421 53.5753 48.7883C52.9786 49.9813 51.5674 50.4057 50.4116 49.7385L47.9123 48.2955C47.9117 48.2953 47.9112 48.2949 47.9106 48.2946L42.9918 45.4547C42.5012 45.1712 41.8742 45.3396 41.5911 45.83C41.3079 46.3204 41.476 46.9475 41.9664 47.2306L46.8852 50.0706C47.951 50.6858 48.3342 52.0623 47.7396 53.1388C47.1229 54.2552 45.6513 54.6106 44.5467 53.9728C44.3796 53.8763 39.7517 51.2042 39.6922 51.1701C39.2016 50.8868 38.5745 51.0549 38.2915 51.5453C38.0084 52.0358 38.1764 52.6629 38.6668 52.946L40.434 53.9664C41.5311 54.6117 41.8678 55.9851 41.2884 57.0346C40.663 58.1666 39.1841 58.4969 38.0954 57.8685L35.9978 56.6574C36.6129 55.4053 36.6138 53.8789 35.8656 52.5826C34.8018 50.7399 32.5773 49.9762 30.6433 50.6796C30.5488 48.1581 28.2646 46.1716 25.6661 46.5691C25.9042 44.4826 24.6088 42.5367 22.6023 41.9404C23.2434 40.6788 23.2552 39.1276 22.4963 37.8133C21.3038 35.7479 18.6534 35.0379 16.5881 36.2302L15.2097 37.0261L21.8695 25.4909C22.4328 25.7912 23.0262 26.0308 23.6373 26.2058ZM12.1331 38.253L8.70816 36.2756L16.8756 22.1292L20.3005 24.1066L12.1331 38.253Z" fill="#419CF3"/>
</g>
<circle opacity="0.15" cx="31.5" cy="38.5" r="31.5" fill="#419CF3"/>
<defs>
<clipPath id="clip0_529:545">
<rect width="70" height="70" fill="white"/>
</clipPath>
</defs>
</svg>
