<svg width="70" height="70" viewBox="0 0 70 70" fill="none" xmlns="http://www.w3.org/2000/svg">
<g clip-path="url(#clip0_529:531)">
<path d="M61.4513 30.7508H60.6021V28.2015V19.1391C60.6021 16.172 58.1882 13.7581 55.2213 13.7581H31.8878L16.1459 9.26039C16.1414 9.25915 16.1367 9.25847 16.1322 9.25722C16.1276 9.25597 16.1231 9.25416 16.1185 9.25303C16.109 9.25065 16.0996 9.24952 16.0902 9.24748C16.0756 9.24442 16.0609 9.24125 16.0463 9.23887C16.0331 9.23672 16.02 9.23536 16.0068 9.23377C15.9914 9.23196 15.9761 9.23037 15.9608 9.22947C15.9483 9.22879 15.936 9.22867 15.9235 9.22845C15.9077 9.22822 15.8919 9.22811 15.8762 9.22879C15.8645 9.22924 15.8528 9.23037 15.8413 9.23128C15.8251 9.23264 15.8089 9.23411 15.7929 9.23649C15.782 9.23808 15.7713 9.24011 15.7605 9.24204C15.744 9.24499 15.7277 9.24816 15.7115 9.25212C15.7014 9.25461 15.6915 9.25745 15.6816 9.26028C15.665 9.26504 15.6487 9.26991 15.6324 9.27557C15.6232 9.27886 15.6142 9.28237 15.605 9.28599C15.5886 9.29234 15.5722 9.29902 15.5563 9.30638C15.5478 9.31035 15.5395 9.31465 15.5311 9.31885C15.5152 9.32689 15.4994 9.33504 15.484 9.34422C15.476 9.34886 15.4683 9.35385 15.4603 9.35883C15.4451 9.36835 15.4302 9.37809 15.4157 9.38863C15.4081 9.39406 15.4007 9.39995 15.3933 9.40573C15.3793 9.41649 15.3655 9.42748 15.3523 9.43915C15.3448 9.44572 15.3376 9.45263 15.3304 9.45943C15.3179 9.47121 15.3056 9.48299 15.2938 9.49545C15.2864 9.50327 15.2795 9.51142 15.2724 9.51958C15.2616 9.53193 15.251 9.54439 15.2409 9.55742C15.2337 9.56682 15.2269 9.57645 15.2199 9.58608C15.211 9.59865 15.2022 9.61134 15.194 9.62436C15.187 9.63547 15.1805 9.64702 15.1741 9.65846C15.1669 9.67104 15.1598 9.68372 15.1533 9.69675C15.147 9.70944 15.1413 9.72247 15.1355 9.73549C15.1299 9.74829 15.1243 9.76109 15.1193 9.77424C15.1141 9.78806 15.1096 9.80222 15.105 9.81649C15.102 9.82566 15.0984 9.83427 15.0957 9.84356C15.0943 9.84821 15.0937 9.85274 15.0925 9.85727C15.0913 9.86191 15.0894 9.86633 15.0883 9.87098L14.1168 13.7579H11.3814C8.42036 13.7579 6.01065 16.162 6.00091 19.1209C6.00079 19.1271 6 19.1328 6 19.1388V48.5919C6 49.0609 6.38176 49.4415 6.84961 49.4415C7.31859 49.4415 7.69922 49.0609 7.69922 48.5919V23.0576C8.66256 23.9634 9.95781 24.52 11.3814 24.52H55.2213C55.2223 24.52 55.2232 24.5199 55.2242 24.5199C57.2529 24.5215 58.9029 26.1725 58.9029 28.2017V34.1494H49.5559C49.5553 34.1494 49.5549 34.1495 49.5543 34.1495C49.5297 34.1495 49.5052 34.151 49.4809 34.1531C49.4538 34.1555 49.4271 34.1593 49.4008 34.1642C49.3968 34.1649 49.393 34.1652 49.389 34.166C49.3668 34.1704 49.3451 34.1763 49.3234 34.1824C49.3187 34.1838 49.3138 34.1847 49.3092 34.1862C49.2899 34.1921 49.2712 34.1991 49.2525 34.2062C49.2454 34.209 49.2381 34.2112 49.231 34.2142C49.2154 34.2206 49.2003 34.2282 49.1852 34.2356C49.1753 34.2403 49.1652 34.2448 49.1554 34.2499C49.1437 34.2561 49.1325 34.2632 49.1212 34.27C49.1086 34.2775 49.0958 34.2847 49.0836 34.2929C49.0753 34.2983 49.0677 34.3046 49.0598 34.3103C49.0453 34.3208 49.0307 34.3311 49.0169 34.3425C49.0109 34.3475 49.0053 34.353 48.9996 34.3581C48.9847 34.3711 48.9699 34.3839 48.9558 34.3979C48.9476 34.4062 48.9401 34.4152 48.9323 34.4238C48.9213 34.4357 48.91 34.4474 48.8995 34.4601C48.882 34.4815 48.8655 34.5037 48.8501 34.5267C48.8498 34.5271 48.8495 34.5275 48.8492 34.528L44.3182 41.3249C44.2866 41.3723 44.2599 41.4225 44.2387 41.4747C44.2306 41.4942 44.2242 41.514 44.2177 41.5337C44.2158 41.5397 44.2133 41.5455 44.2115 41.5515C44.2052 41.5724 44.2003 41.5936 44.1956 41.6147C44.1944 41.6203 44.1928 41.6257 44.1917 41.6312C44.1879 41.6503 44.1855 41.6694 44.1831 41.6886C44.1821 41.6967 44.1805 41.7049 44.1797 41.7131C44.1781 41.7289 44.1777 41.7445 44.1772 41.7603C44.1766 41.7723 44.1756 41.7843 44.1756 41.7964C44.1756 41.8081 44.1766 41.8197 44.1771 41.8314C44.1776 41.8475 44.1781 41.8637 44.1797 41.8798C44.1805 41.8876 44.1819 41.8954 44.183 41.9032C44.1855 41.9227 44.1879 41.9422 44.1918 41.9616C44.1928 41.9669 44.1944 41.9721 44.1956 41.9774C44.2003 41.9987 44.2053 42.02 44.2116 42.0412C44.2134 42.0472 44.2159 42.053 44.2178 42.0591C44.2243 42.0788 44.2308 42.0986 44.2388 42.1181C44.2601 42.1702 44.2868 42.2205 44.3186 42.268L48.8495 49.064C48.8497 49.0643 48.8499 49.0645 48.8501 49.0649C48.8684 49.0919 48.8883 49.1178 48.9094 49.1426C48.9163 49.1507 48.9237 49.1583 48.9308 49.166C48.9452 49.1818 48.9601 49.1969 48.9757 49.2116C48.9848 49.2202 48.9939 49.2285 49.0032 49.2366C49.0197 49.2508 49.0368 49.264 49.0544 49.2769C49.0623 49.2827 49.0699 49.289 49.0779 49.2945C49.1034 49.3118 49.1298 49.3278 49.1571 49.3423C49.164 49.3459 49.1712 49.349 49.1781 49.3524C49.1998 49.3632 49.222 49.3733 49.2448 49.3823C49.2536 49.3858 49.2625 49.389 49.2714 49.3921C49.2931 49.3998 49.315 49.4066 49.3375 49.4126C49.3466 49.415 49.3557 49.4175 49.365 49.4198C49.388 49.4251 49.4113 49.4292 49.435 49.4326C49.4436 49.4338 49.4521 49.4355 49.4607 49.4365C49.4899 49.4398 49.5196 49.4416 49.5498 49.4419C49.5521 49.4419 49.5545 49.4423 49.557 49.4423C49.5575 49.4423 49.558 49.4422 49.5586 49.4422H58.9033V55.3904C58.9033 57.4206 57.2516 59.0722 55.2216 59.0722H11.3819C9.35187 59.0722 7.70024 57.4206 7.70024 55.3904C7.70024 55.3859 7.69967 55.3816 7.69956 55.3772V51.9908C7.69956 51.5229 7.31893 51.1412 6.84995 51.1412C6.3821 51.1412 6.00034 51.5229 6.00034 51.9908V55.3904C6.00034 55.3992 6.00136 55.4078 6.0017 55.4165C6.01586 58.3716 8.42365 60.7714 11.3819 60.7714H55.2216C58.1883 60.7714 60.602 58.358 60.6025 55.3913C60.6025 55.3912 60.6025 55.391 60.6025 55.3908V49.4422H61.4516C62.8568 49.4422 64 48.299 64 46.8938V33.2992C63.9997 31.8941 62.8564 30.7508 61.4513 30.7508ZM16.5238 11.1355L31.5153 15.419C31.516 15.4193 31.5168 15.4194 31.5175 15.4196L41.565 18.2904H14.7356L16.5238 11.1355ZM58.9028 24.2827C57.9396 23.3771 56.6446 22.8206 55.2213 22.8206C55.2198 22.8206 55.2185 22.8208 55.2169 22.8208H11.3814C9.35131 22.8208 7.69967 21.1692 7.69967 19.1391C7.69967 17.109 9.35131 15.4573 11.3814 15.4573H13.6921L12.9841 18.2904H11.3816C10.9124 18.2904 10.532 18.6708 10.532 19.14C10.532 19.6092 10.9124 19.9896 11.3816 19.9896H13.6445C13.6457 19.9896 13.6469 19.9898 13.6482 19.9898C13.6491 19.9898 13.65 19.9896 13.6508 19.9896H47.6284C47.6295 19.9896 47.6306 19.9898 47.6316 19.9898C47.6325 19.9898 47.6334 19.9896 47.6343 19.9896H54.0875C54.5567 19.9896 54.9371 19.6092 54.9371 19.14C54.9371 18.6708 54.5567 18.2904 54.0875 18.2904H47.7502L37.8348 15.4573H55.2212C57.2512 15.4573 58.9028 17.109 58.9028 19.1391V24.2827ZM62.3004 46.8934C62.3004 47.3616 61.9195 47.7425 61.4513 47.7425H50.0106L46.0459 41.796L50.0106 35.8485H61.4513C61.4632 35.8485 61.4747 35.8471 61.4865 35.8467C61.7715 35.8427 62.0452 35.7919 62.3004 35.7015V46.8934ZM61.4513 34.1483C61.4454 34.1483 61.4396 34.1491 61.4337 34.1493H60.6021V32.45H61.4513C61.9195 32.45 62.3004 32.831 62.3004 33.2992C62.3004 33.7674 61.9195 34.1483 61.4513 34.1483Z" fill="#419CF3"/>
<path d="M52.9551 38.6809C51.2373 38.6809 49.8398 40.0785 49.8398 41.7962C49.8398 43.514 51.2373 44.9115 52.9551 44.9115C54.6729 44.9115 56.0703 43.514 56.0703 41.7962C56.0703 40.0785 54.6729 38.6809 52.9551 38.6809ZM52.9551 43.2123C52.1742 43.2123 51.5391 42.5771 51.5391 41.7962C51.5391 41.0154 52.1742 40.3801 52.9551 40.3801C53.7359 40.3801 54.3711 41.0154 54.3711 41.7962C54.3711 42.5771 53.7359 43.2123 52.9551 43.2123Z" fill="#419CF3"/>
<path d="M2 64L65 8" stroke="#419CF3" stroke-width="2"/>
<path d="M1.49972 8.70439L65.9996 63.2958" stroke="#419CF3" stroke-width="2"/>
</g>
<circle opacity="0.15" cx="31.5" cy="38.5" r="31.5" fill="#419CF3"/>
<defs>
<clipPath id="clip0_529:531">
<rect width="70" height="70" fill="white"/>
</clipPath>
</defs>
</svg>
