<svg width="70" height="70" viewBox="0 0 70 70" fill="none" xmlns="http://www.w3.org/2000/svg">
<g clip-path="url(#clip0_529:564)">
<path d="M34.9997 64.1667C18.958 64.1667 5.83301 51.0417 5.83301 35C5.83301 18.9584 18.958 5.83337 34.9997 5.83337C51.0414 5.83337 64.1664 18.9584 64.1664 35C64.1664 51.0417 51.0414 64.1667 34.9997 64.1667ZM34.9997 8.75004C20.4163 8.75004 8.74968 20.4167 8.74968 35C8.74968 49.5834 20.4163 61.25 34.9997 61.25C49.583 61.25 61.2497 49.5834 61.2497 35C61.2497 20.4167 49.583 8.75004 34.9997 8.75004Z" fill="#419CF3"/>
<path d="M35.0003 14.5833C34.1253 14.5833 33.542 14 33.542 13.125V1.45833C33.542 0.583333 34.1253 0 35.0003 0C35.8753 0 36.4587 0.583333 36.4587 1.45833V13.125C36.4587 14 35.8753 14.5833 35.0003 14.5833Z" fill="#419CF3"/>
<path d="M35.0003 14.5833C34.1253 14.5833 33.542 14 33.542 13.125V1.45833C33.542 0.583333 34.1253 0 35.0003 0C35.8753 0 36.4587 0.583333 36.4587 1.45833V13.125C36.4587 14 35.8753 14.5833 35.0003 14.5833Z" fill="#419CF3"/>
<path d="M68.542 36.4583H56.8753C56.0003 36.4583 55.417 35.875 55.417 35C55.417 34.125 56.0003 33.5416 56.8753 33.5416H68.542C69.417 33.5416 70.0003 34.125 70.0003 35C70.0003 35.875 69.417 36.4583 68.542 36.4583Z" fill="#419CF3"/>
<path d="M35.0003 69.9999C34.1253 69.9999 33.542 69.4166 33.542 68.5416V56.875C33.542 56 34.1253 55.4166 35.0003 55.4166C35.8753 55.4166 36.4587 56 36.4587 56.875V68.5416C36.4587 69.4166 35.8753 69.9999 35.0003 69.9999Z" fill="#419CF3"/>
<path d="M13.125 36.4583H1.45833C0.583333 36.4583 0 35.875 0 35C0 34.125 0.583333 33.5416 1.45833 33.5416H13.125C14 33.5416 14.5833 34.125 14.5833 35C14.5833 35.875 14 36.4583 13.125 36.4583Z" fill="#419CF3"/>
<path d="M35 43.75C30.0417 43.75 26.25 39.9583 26.25 35C26.25 30.0417 30.0417 26.25 35 26.25C39.9583 26.25 43.75 30.0417 43.75 35C43.75 39.9583 39.9583 43.75 35 43.75ZM35 29.1667C31.7917 29.1667 29.1667 31.7917 29.1667 35C29.1667 38.2083 31.7917 40.8333 35 40.8333C38.2083 40.8333 40.8333 38.2083 40.8333 35C40.8333 31.7917 38.2083 29.1667 35 29.1667Z" fill="#419CF3"/>
</g>
<circle opacity="0.15" cx="31.5" cy="38.5" r="31.5" fill="#419CF3"/>
<defs>
<clipPath id="clip0_529:564">
<rect width="70" height="70" fill="white"/>
</clipPath>
</defs>
</svg>
