<svg width="70" height="70" viewBox="0 0 70 70" fill="none" xmlns="http://www.w3.org/2000/svg">
<g clip-path="url(#clip0_529:584)">
<path d="M49.0589 30.4134C49.5117 30.2965 49.8281 29.8881 49.8281 29.4205V25.7148C49.8281 25.2472 49.5117 24.8388 49.0589 24.7219L46.5108 24.0643C46.2837 23.3166 45.9845 22.5941 45.6169 21.9058L46.9535 19.639C47.1909 19.2362 47.126 18.7238 46.7954 18.3931L44.1751 15.7727C43.8442 15.4421 43.3316 15.3769 42.9291 15.6145L40.6625 16.9514C39.974 16.5836 39.2516 16.2844 38.504 16.0573L37.8462 13.509C37.7295 13.0562 37.3209 12.7399 36.8534 12.7399H33.1476C32.68 12.7399 32.2716 13.0562 32.1547 13.509L31.497 16.0573C30.7494 16.2844 30.027 16.5836 29.3385 16.9514L27.0718 15.6145C26.6689 15.3769 26.1563 15.4421 25.8259 15.7727L23.2055 18.3931C22.875 18.7236 22.8099 19.2362 23.0475 19.639L24.3841 21.9058C24.0164 22.5941 23.7173 23.3166 23.4902 24.0643L20.942 24.7219C20.4892 24.8388 20.1729 25.2472 20.1729 25.7148V29.4205C20.1729 29.8881 20.4892 30.2965 20.942 30.4134L23.4902 31.071C23.7173 31.8187 24.0164 32.5411 24.3841 33.2296L23.0475 35.4964C22.81 35.8992 22.875 36.4116 23.2055 36.7423L25.8259 39.3627C26.1566 39.6932 26.6692 39.7584 27.0718 39.5209L29.3386 38.184C30.0271 38.5518 30.7494 38.851 31.497 39.0781L32.1547 41.6262C32.2715 42.079 32.68 42.3954 33.1476 42.3954H36.8534C37.3209 42.3954 37.7293 42.079 37.8462 41.6262L38.504 39.0781C39.2516 38.851 39.9738 38.5518 40.6623 38.184L42.9291 39.5209C43.3321 39.7584 43.8443 39.6932 44.1751 39.3627L46.7954 36.7423C47.126 36.4118 47.1911 35.8992 46.9535 35.4964L45.6169 33.2296C45.9845 32.5411 46.2837 31.8188 46.5108 31.071L49.0589 30.4134ZM33.9421 40.3445L33.3683 38.121L33.4094 32.1383C33.4123 31.7129 33.1521 31.3297 32.7556 31.1756C31.0893 30.5278 30.1336 28.9647 30.1336 26.887C30.1336 25.5331 30.7439 24.2852 31.7665 23.4233V26.4426C31.7665 26.7591 31.9125 27.0579 32.1624 27.2522L34.3719 28.9702C34.742 29.2581 35.2606 29.2581 35.6307 28.9702L37.8403 27.252C38.0901 27.0577 38.2363 26.759 38.2363 26.4425V23.4246C39.258 24.2865 39.8675 25.5337 39.8675 26.8868C39.8675 28.9676 38.9163 30.5307 37.2578 31.1754C36.8618 31.3292 36.6019 31.7114 36.604 32.1362L36.6331 38.1198L36.059 40.3442H33.9421V40.3445ZM45.4241 29.2333C45.0595 29.3274 44.7758 29.6138 44.6852 29.9793C44.446 30.9429 44.0656 31.8618 43.5542 32.7102C43.3598 33.0328 43.3579 33.4359 43.5493 33.7604L44.7836 35.8538L43.2867 37.3507L41.1934 36.1162C40.8691 35.9249 40.466 35.9268 40.1432 36.1212C39.6747 36.4036 39.1847 36.6458 38.6777 36.8467L38.6579 32.7869C40.7129 31.6981 41.9182 29.544 41.9182 26.8871C41.9182 24.1454 40.2164 21.7119 37.5826 20.6876C36.7808 20.5148 36.1796 20.8152 36.1855 21.6433V25.9412L35.0012 26.862L33.8171 25.9412V21.6426C33.6875 20.8328 33.222 20.5142 32.4203 20.6868C29.7853 21.7107 28.0826 24.1445 28.0826 26.8871C28.0826 29.5416 29.2919 31.6955 31.3539 32.7865L31.326 36.8478C30.8181 36.6468 30.3272 36.4041 29.8577 36.1212C29.5352 35.9268 29.132 35.9248 28.8076 36.1162L26.7143 37.3507L25.2174 35.8538L26.4517 33.7604C26.6429 33.4359 26.6412 33.0329 26.4467 32.7102C25.9354 31.8618 25.5549 30.9429 25.3158 29.9793C25.2252 29.6138 24.9415 29.3274 24.5768 29.2333L22.2236 28.6262V26.5091L24.5768 25.9018C24.9415 25.8077 25.2252 25.5213 25.3158 25.1558C25.5549 24.1923 25.9354 23.2734 26.4467 22.425C26.6412 22.1025 26.6431 21.6992 26.4517 21.3749L25.2174 19.2815L26.7143 17.7845L28.8076 19.0191C29.1319 19.2104 29.5349 19.2084 29.8577 19.014C30.7064 18.5026 31.6254 18.1221 32.5888 17.883C32.9543 17.7922 33.2407 17.5086 33.3346 17.144L33.9419 14.7908H36.0589L36.6662 17.144C36.7603 17.5086 37.0465 17.7923 37.412 17.883C38.3755 18.1221 39.2945 18.5026 40.1431 19.014C40.4656 19.2083 40.8688 19.2102 41.1932 19.0191L43.2865 17.7845L44.7835 19.2815L43.5492 21.3749C43.3579 21.6993 43.3597 22.1025 43.5541 22.425C44.0654 23.2734 44.4459 24.1923 44.685 25.1558C44.7757 25.5213 45.0594 25.8077 45.424 25.9018L47.7772 26.5091V28.6262L45.4241 29.2333Z" fill="#419CF3"/>
<path d="M65.4314 4.26941H36.7588C36.1924 4.26941 35.7334 4.72851 35.7334 5.2948C35.7334 5.86109 36.1924 6.32019 36.7588 6.32019H65.4314C66.7964 6.32019 67.9498 7.47218 67.9498 8.83581V50.4298C67.9498 52.1134 67.1653 52.8975 65.4807 52.8975H49.9754C49.409 52.8975 48.95 53.3566 48.95 53.9229C48.95 54.4892 49.409 54.9483 49.9754 54.9483H65.4807C68.3109 54.9483 70.0006 53.2592 70.0006 50.4298V8.83581C70.0006 6.36066 67.9081 4.26941 65.4314 4.26941Z" fill="#419CF3"/>
<path d="M64.7277 26.3591C65.2942 26.3591 65.7531 25.9 65.7531 25.3337V9.48523C65.7531 8.91894 65.2942 8.45984 64.7277 8.45984H5.27148C4.70506 8.45984 4.24609 8.91894 4.24609 9.48523V45.3739C4.24609 45.9402 4.70506 46.3993 5.27148 46.3993H64.7277C65.2942 46.3993 65.7531 45.9402 65.7531 45.3739V29.8016C65.7531 29.2353 65.2942 28.7762 64.7277 28.7762C64.1613 28.7762 63.7023 29.2353 63.7023 29.8016V44.3485H6.29688V10.5106H63.7023V25.3337C63.7023 25.9 64.1614 26.3591 64.7277 26.3591Z" fill="#419CF3"/>
<path d="M47.7404 59.4219H42.1148L40.6589 54.9485H45.5055C46.0719 54.9485 46.5309 54.4894 46.5309 53.9231C46.5309 53.3568 46.0719 52.8977 45.5055 52.8977H4.51855C3.15779 52.8977 2.05078 51.7912 2.05078 50.4313V8.83582C2.05078 7.47218 3.20414 6.32019 4.56914 6.32019H32.2889C32.8553 6.32019 33.3143 5.86109 33.3143 5.2948C33.3143 4.72851 32.8553 4.26941 32.2889 4.26941H4.56914C2.09248 4.26941 0 6.36066 0 8.83582V50.4311C0 52.9219 2.02699 54.9483 4.51855 54.9483H29.3412L27.8853 59.4218H22.2599C21.6934 59.4218 21.2345 59.8809 21.2345 60.4471V64.705C21.2345 65.2713 21.6934 65.7304 22.2599 65.7304H47.7405C48.307 65.7304 48.7659 65.2713 48.7659 64.705V60.4471C48.7658 59.881 48.3067 59.4219 47.7404 59.4219ZM31.4978 54.9485H38.5022L39.9581 59.4218H30.0418L31.4978 54.9485ZM46.715 63.6797H23.285V61.4727H46.7149V63.6797H46.715Z" fill="#419CF3"/>
<path d="M35 50.8639C34.4337 50.8639 33.9746 50.4048 33.9746 49.8385C33.9746 49.2722 34.4337 48.8131 35 48.8131C35.5663 48.8131 36.0254 49.2722 36.0254 49.8385C36.0254 50.4048 35.5663 50.8639 35 50.8639Z" fill="#419CF3"/>
<path d="M39.2471 50.8639C38.6808 50.8639 38.2217 50.4048 38.2217 49.8385C38.2217 49.2722 38.6808 48.8131 39.2471 48.8131C39.8134 48.8131 40.2725 49.2722 40.2725 49.8385C40.2725 50.4048 39.8134 50.8639 39.2471 50.8639Z" fill="#419CF3"/>
<path d="M30.7529 50.8639C30.1866 50.8639 29.7275 50.4048 29.7275 49.8385C29.7275 49.2722 30.1866 48.8131 30.7529 48.8131C31.3192 48.8131 31.7783 49.2722 31.7783 49.8385C31.7783 50.4048 31.3192 50.8639 30.7529 50.8639Z" fill="#419CF3"/>
</g>
<circle opacity="0.15" cx="31.5" cy="38.5" r="31.5" fill="#419CF3"/>
<defs>
<clipPath id="clip0_529:584">
<rect width="70" height="70" fill="white"/>
</clipPath>
</defs>
</svg>
