<svg width="66" height="66" viewBox="0 0 66 66" fill="none" xmlns="http://www.w3.org/2000/svg">
<path d="M47.8031 15.0874C47.8031 14.598 47.3489 14.2158 46.9908 14.2158C46.9073 14.2158 46.8237 14.2279 46.7643 14.2757L43.7314 16.2456C43.457 16.4248 43.3613 16.7114 43.3613 16.9143C43.3613 17.1172 43.457 17.4037 43.7314 17.583L46.7643 19.5528C46.8237 19.6007 46.9073 19.6128 46.9908 19.6128C47.3489 19.6128 47.8031 19.2306 47.8031 18.7411C47.8031 18.5382 47.7195 18.3589 47.588 18.2754L45.4863 16.9143L47.588 15.5532C47.719 15.4696 47.8031 15.2904 47.8031 15.0874Z" fill="#419CF3"/>
<path d="M53.8091 11.0044C53.594 11.0044 53.4027 11.0996 53.3075 11.303L49.1166 19.911C49.0808 19.9825 49.0566 20.0661 49.0566 20.1381C49.0566 20.4362 49.3195 20.7706 49.7258 20.7706C49.9524 20.7706 50.1795 20.6512 50.2631 20.4725L54.4657 11.8639C54.5014 11.7924 54.5135 11.7088 54.5135 11.6368C54.513 11.2552 54.1429 11.0044 53.8091 11.0044Z" fill="#419CF3"/>
<path d="M59.8377 16.2456L56.8054 14.2757C56.7455 14.2279 56.6619 14.2158 56.5783 14.2158C56.2203 14.2158 55.7666 14.598 55.7666 15.0874C55.7666 15.2904 55.8502 15.4696 55.9816 15.5532L58.0829 16.9143L55.9816 18.2754C55.8502 18.3589 55.7666 18.5382 55.7666 18.7411C55.7666 19.2306 56.2203 19.6128 56.5783 19.6128C56.6619 19.6128 56.7455 19.6007 56.8054 19.5528L59.8377 17.583C60.1127 17.4037 60.2078 17.1172 60.2078 16.9143C60.2078 16.7114 60.1127 16.4248 59.8377 16.2456Z" fill="#419CF3"/>
<path d="M61.3249 4.80679H40.5086C39.433 1.99905 36.7094 0 33.5275 0H19.5653C15.4459 0 12.0938 3.35207 12.0938 7.47153V15.9557C11.261 16.6732 10.8737 17.7956 11.0787 18.9256L11.6275 21.9458C11.8249 22.9831 12.3758 23.5163 12.8028 23.7807C13.2807 24.0763 13.8109 24.174 14.2978 24.1765V24.7132C14.2978 27.4364 15.8865 30.4375 18.6564 32.9476C19.1781 33.42 19.7204 33.8555 20.2733 34.2493V35.8687C20.2733 36.3621 19.9213 36.7856 19.4359 36.8757C19.4133 36.8798 19.3911 36.8848 19.3689 36.8904C19.3523 36.8949 17.6927 37.3274 15.5229 37.9427H8.43357C7.63647 37.9427 6.86756 38.2776 6.32424 38.8607C5.78092 39.4438 5.50196 40.2349 5.55886 41.03L5.578 41.3029C2.40721 42.8931 0.412181 45.7441 0.221843 48.9844C0.22134 48.998 0.220836 49.0116 0.220333 49.0252L0.000285746 62.3332C-0.0117992 63.3091 0.359813 64.229 1.04513 64.9234C1.73146 65.6178 2.64639 66 3.62275 66H49.4706C50.4464 66 51.3619 65.6178 52.0477 64.9234C52.7335 64.229 53.1051 63.3096 53.093 62.3292L52.873 49.0252C52.8725 49.0116 52.872 48.998 52.871 48.9844C52.6756 45.6504 50.5698 42.7289 47.2374 41.1684C47.1764 41.1397 47.1125 41.1105 47.0465 41.0808L47.0501 41.03C47.1065 40.2349 46.8275 39.4443 46.2847 38.8607C45.7414 38.2776 44.9725 37.9427 44.1753 37.9427H37.5704C35.4012 37.3274 33.741 36.8949 33.7244 36.8909C33.7022 36.8848 33.6801 36.8798 33.6574 36.8757C33.172 36.7856 32.82 36.3621 32.82 35.8687V34.2498C33.3729 33.8555 33.9152 33.42 34.4369 32.9476C36.1973 31.3524 37.4808 29.5588 38.1822 27.7642H44.4639L43.3667 32.1928C43.1839 32.9315 43.4769 33.6778 44.1134 34.0942C44.4125 34.2901 44.7479 34.3873 45.0817 34.3873C45.4594 34.3873 45.835 34.2634 46.1553 34.0172L54.2955 27.7642H61.3249C63.8723 27.7642 65.9444 25.6921 65.9444 23.1447V9.42627C65.9444 6.87936 63.8723 4.80679 61.3249 4.80679ZM38.7975 17.6259C39.1671 17.5 39.5171 17.4482 39.7452 17.4275C40.0488 17.6969 40.1918 18.1405 40.1123 18.5796L39.5664 21.5847C39.4869 22.0042 39.3258 22.1039 39.2729 22.1366C39.1606 22.2061 38.9949 22.2419 38.7965 22.2439L38.7975 17.6259ZM14.0274 7.47153C14.0274 4.41806 16.5119 1.93359 19.5653 1.93359H33.528C36.5815 1.93359 39.0659 4.41806 39.0659 7.47153V15.572C38.5876 15.6566 37.9919 15.8187 37.4103 16.1289V10.238C37.4103 8.11958 35.6867 6.39597 33.5683 6.39597H30.9554C30.0495 6.39597 29.1648 6.71169 28.4634 7.28471L28.2076 7.49419C27.7403 7.87637 27.1502 8.08685 26.5464 8.08685C25.9427 8.08685 25.353 7.87637 24.8857 7.49469L24.6294 7.28471C23.9285 6.71169 23.0433 6.39597 22.1374 6.39597H19.525C17.4067 6.39597 15.683 8.11908 15.683 10.238V16.1284C15.1014 15.8187 14.5058 15.6561 14.0274 15.572V7.47153ZM13.8204 22.1366C13.7676 22.1039 13.6064 22.0042 13.5284 21.5928L12.981 18.5801C12.9015 18.141 13.0445 17.6979 13.3471 17.428C13.5752 17.4487 13.9257 17.4995 14.2958 17.6254L14.2968 22.2439C14.0989 22.2419 13.9332 22.2061 13.8204 22.1366ZM5.26631 63.366C5.26631 63.6087 5.29954 63.8433 5.36097 64.0664H3.62275C3.16755 64.0664 2.74105 63.8882 2.4208 63.5644C2.10105 63.2406 1.92834 62.8116 1.93338 62.3609L2.15342 49.078C2.29643 46.7567 3.58297 44.7441 5.72956 43.4278L6.90986 59.9887C6.93151 60.2929 7.001 60.5834 7.10977 60.8538C6.04226 61.1902 5.26631 62.1892 5.26631 63.366ZM45.6986 59.9887L46.898 43.1609C49.324 44.4626 50.7868 46.5931 50.9399 49.078L51.16 62.3569C51.165 62.8116 50.9918 63.2406 50.6725 63.5644C50.3523 63.8882 49.9258 64.0664 49.4706 64.0664H47.7324C47.7943 63.8433 47.827 63.6087 47.827 63.366C47.827 62.0301 46.8275 60.9238 45.5369 60.7551C45.624 60.5129 45.6799 60.2561 45.6986 59.9887ZM45.8934 63.366C45.8934 63.7522 45.5792 64.0664 45.1935 64.0664H7.89982C7.51411 64.0664 7.1999 63.7522 7.1999 63.366C7.1999 62.9803 7.51411 62.6661 7.89982 62.6661H45.1935C45.5792 62.6661 45.8934 62.9803 45.8934 63.366ZM44.8697 40.1785C45.051 40.3733 45.1406 40.6266 45.1215 40.8925L43.77 59.8518C43.7347 60.3457 43.3193 60.7325 42.8238 60.7325H9.78457C9.28959 60.7325 8.87417 60.3457 8.83842 59.8513L7.48742 40.8925C7.46829 40.6266 7.55792 40.3733 7.73919 40.1785C7.92097 39.9836 8.1672 39.8763 8.43357 39.8763H44.1753C44.4412 39.8763 44.688 39.9836 44.8697 40.1785ZM31.7359 37.9427H21.3574C21.8861 37.405 22.2069 36.6688 22.2069 35.8687V35.4361C23.7311 36.2252 25.2458 36.6678 26.5464 36.6678C27.8471 36.6678 29.3617 36.2252 30.8864 35.4361V35.8687C30.8864 36.6688 31.2072 37.405 31.7359 37.9427ZM33.1383 31.5146C30.9796 33.4703 28.3924 34.7342 26.5464 34.7342C24.7009 34.7342 22.1137 33.4703 19.9551 31.5146C17.5884 29.371 16.2314 26.8916 16.2314 24.7127L16.2294 18.6219C16.242 18.6219 16.2546 18.6224 16.2671 18.6224C16.4419 18.6224 16.6181 18.5882 16.7868 18.5177C17.2908 18.3072 17.6166 17.8183 17.6166 17.2724V10.238C17.6166 9.18558 18.4726 8.32956 19.525 8.32956H22.1379C22.5987 8.32956 23.0488 8.49019 23.4053 8.78174L23.6621 8.99171C24.4738 9.65488 25.498 10.0204 26.5464 10.0204C27.5948 10.0204 28.6195 9.65488 29.4312 8.99121L29.6875 8.78174C30.044 8.49019 30.4947 8.32956 30.9554 8.32956H33.5678C34.6202 8.32956 35.4767 9.18558 35.4767 10.238V17.2724C35.4767 17.8188 35.802 18.3072 36.3065 18.5177C36.4868 18.5932 36.6766 18.627 36.8634 18.6219L36.8619 24.7132C36.8624 26.8916 35.5049 29.371 33.1383 31.5146ZM64.0108 23.1447C64.0108 24.6256 62.8063 25.8306 61.3249 25.8306H53.9672C53.7542 25.8306 53.5472 25.9011 53.3785 26.031L45.3592 32.1908L46.6377 27.03C46.7092 26.7415 46.6442 26.4359 46.4609 26.2017C46.2776 25.9676 45.9967 25.8306 45.6996 25.8306H38.7099C38.7668 25.4545 38.796 25.0813 38.796 24.7132V24.1765C39.2824 24.174 39.8127 24.0763 40.2905 23.7807C40.718 23.5163 41.2689 22.9831 41.4673 21.9382L42.0147 18.9256C42.2201 17.7956 41.8319 16.6727 40.9995 15.9557V7.47153C40.9995 7.2253 40.9874 6.98108 40.9638 6.74039H61.3249C62.8063 6.74039 64.0108 7.94536 64.0108 9.42627V23.1447Z" fill="#419CF3"/>
<path d="M26.5467 54.7037C28.5508 54.7037 30.1812 53.0732 30.1812 51.0691C30.1812 49.065 28.5508 47.4346 26.5467 47.4346C24.5426 47.4346 22.9121 49.065 22.9121 51.0691C22.9121 53.0732 24.5426 54.7037 26.5467 54.7037ZM26.5467 49.3682C27.4848 49.3682 28.2476 50.1315 28.2476 51.0691C28.2476 52.0072 27.4848 52.7701 26.5467 52.7701C25.6091 52.7701 24.8457 52.0072 24.8457 51.0691C24.8457 50.1315 25.6091 49.3682 26.5467 49.3682Z" fill="#419CF3"/>
<circle opacity="0.15" cx="31.5" cy="34.5" r="31.5" fill="#419CF3"/>
</svg>
